<?xml version="1.0" encoding="UTF-8"?>
<!-- "Apps on Play & App Store" — store display grid + bear mascot. -->
<svg xmlns="http://www.w3.org/2000/svg" viewBox="0 0 800 600" role="img"
     aria-label="Apps on Google Play and the iOS Store">
  <defs>
    <linearGradient id="st-bg" x1="0" y1="0" x2="1" y2="1">
      <stop offset="0" stop-color="#F6F7FB"/>
      <stop offset="1" stop-color="#ECEFF5"/>
    </linearGradient>
    <linearGradient id="st-screen" x1="0" y1="0" x2="0" y2="1">
      <stop offset="0" stop-color="#11151F"/>
      <stop offset="1" stop-color="#1A1F2C"/>
    </linearGradient>
    <linearGradient id="st-accent" x1="0" y1="0" x2="1" y2="1">
      <stop offset="0" stop-color="#2A52FF"/>
      <stop offset="1" stop-color="#C5A8FF"/>
    </linearGradient>
    <symbol id="st-bear" viewBox="0 0 200 200">
      <circle cx="56" cy="62" r="18" fill="#A37A4A"/>
      <circle cx="144" cy="62" r="18" fill="#A37A4A"/>
      <circle cx="56" cy="64" r="9" fill="#E0B98A"/>
      <circle cx="144" cy="64" r="9" fill="#E0B98A"/>
      <circle cx="100" cy="108" r="66" fill="#B58858"/>
      <ellipse cx="100" cy="128" rx="34" ry="24" fill="#E0B98A"/>
      <circle cx="80" cy="98" r="6" fill="#1A1F2C"/>
      <circle cx="120" cy="98" r="6" fill="#1A1F2C"/>
      <circle cx="82" cy="95" r="1.8" fill="#FFFFFF"/>
      <circle cx="122" cy="95" r="1.8" fill="#FFFFFF"/>
      <ellipse cx="100" cy="122" rx="6" ry="4" fill="#1A1F2C"/>
      <path d="M92 134 Q100 142 108 134" fill="none" stroke="#1A1F2C" stroke-width="2.4" stroke-linecap="round"/>
      <path d="M100 128 L100 134" stroke="#1A1F2C" stroke-width="2" stroke-linecap="round"/>
    </symbol>
  </defs>

  <rect width="800" height="600" rx="32" fill="url(#st-bg)"/>

  <!-- Decorative blobs -->
  <circle cx="120" cy="100" r="120" fill="#FFB3D1" opacity="0.25"/>
  <circle cx="700" cy="500" r="140" fill="#C5A8FF" opacity="0.22"/>

  <!-- "Phone" frame (left) -->
  <g transform="translate(60 90)">
    <rect width="260" height="420" rx="34" fill="#0A0D14" stroke="#2A2F3D" stroke-width="2"/>
    <rect x="6" y="6" width="248" height="408" rx="28" fill="url(#st-screen)"/>
    <rect x="92" y="14" width="76" height="14" rx="7" fill="#0A0D14"/>
    <text x="20" y="58" font-family="Inter, system-ui, sans-serif"
          font-size="13" font-weight="600" fill="#FFFFFF">Featured</text>
    <text x="20" y="74" font-family="Inter, system-ui, sans-serif"
          font-size="9" fill="#FFFFFF" opacity="0.6">Curated by N VoaWu</text>

    <!-- Featured big card -->
    <g transform="translate(20 88)">
      <rect width="220" height="120" rx="16" fill="url(#st-accent)"/>
      <circle cx="36" cy="60" r="22" fill="#FFFFFF"/>
      <text x="36" y="66" text-anchor="middle" font-family="Inter, system-ui, sans-serif"
            font-size="22" font-weight="700" fill="#2A52FF">P</text>
      <text x="72" y="50" font-family="Inter, system-ui, sans-serif"
            font-size="14" font-weight="700" fill="#FFFFFF">Puzzle Pop</text>
      <text x="72" y="68" font-family="Inter, system-ui, sans-serif"
            font-size="10" fill="#FFFFFF" opacity="0.85">Match-3 · Casual</text>
      <rect x="72" y="80" width="74" height="22" rx="11" fill="#0A0D14"/>
      <text x="109" y="95" text-anchor="middle" font-family="Inter, system-ui, sans-serif"
            font-size="10" font-weight="600" fill="#FFFFFF">GET</text>
    </g>

    <!-- App grid -->
    <g transform="translate(20 224)">
      <!-- Card 1 -->
      <g>
        <rect width="100" height="120" rx="14" fill="#FFFFFF" opacity="0.08"/>
        <rect x="14" y="14" width="40" height="40" rx="10" fill="#7EC8FF"/>
        <text x="34" y="42" text-anchor="middle" font-family="Inter, system-ui, sans-serif"
              font-size="18" font-weight="700" fill="#0A0D14">T</text>
        <text x="14" y="74" font-family="Inter, system-ui, sans-serif"
              font-size="10" font-weight="600" fill="#FFFFFF">ToolBox Pro</text>
        <text x="14" y="86" font-family="Inter, system-ui, sans-serif"
              font-size="8" fill="#FFFFFF" opacity="0.55">Utilities</text>
        <text x="14" y="104" font-family="Inter, system-ui, sans-serif"
              font-size="8" font-weight="600" fill="#6BE3B7">4.5 ★</text>
      </g>
      <g transform="translate(120 0)">
        <rect width="100" height="120" rx="14" fill="#FFFFFF" opacity="0.08"/>
        <rect x="14" y="14" width="40" height="40" rx="10" fill="#FFD86B"/>
        <text x="34" y="42" text-anchor="middle" font-family="Inter, system-ui, sans-serif"
              font-size="18" font-weight="700" fill="#0A0D14">C</text>
        <text x="14" y="74" font-family="Inter, system-ui, sans-serif"
              font-size="10" font-weight="600" fill="#FFFFFF">CamCue</text>
        <text x="14" y="86" font-family="Inter, system-ui, sans-serif"
              font-size="8" fill="#FFFFFF" opacity="0.55">Photo · Video</text>
        <text x="14" y="104" font-family="Inter, system-ui, sans-serif"
              font-size="8" font-weight="600" fill="#6BE3B7">4.7 ★</text>
      </g>
    </g>
    <g transform="translate(20 360)">
      <g>
        <rect width="100" height="40" rx="12" fill="#FFFFFF" opacity="0.08"/>
        <rect x="10" y="10" width="20" height="20" rx="5" fill="#6BE3B7"/>
        <text x="38" y="18" font-family="Inter, system-ui, sans-serif"
              font-size="9" font-weight="600" fill="#FFFFFF">FitTrack</text>
        <text x="38" y="30" font-family="Inter, system-ui, sans-serif"
              font-size="8" fill="#FFFFFF" opacity="0.55">Health</text>
      </g>
      <g transform="translate(120 0)">
        <rect width="100" height="40" rx="12" fill="#FFFFFF" opacity="0.08"/>
        <rect x="10" y="10" width="20" height="20" rx="5" fill="#C5A8FF"/>
        <text x="38" y="18" font-family="Inter, system-ui, sans-serif"
              font-size="9" font-weight="600" fill="#FFFFFF">NoteNimbus</text>
        <text x="38" y="30" font-family="Inter, system-ui, sans-serif"
              font-size="8" fill="#FFFFFF" opacity="0.55">Productivity</text>
      </g>
    </g>
  </g>

  <!-- "Phone" frame (right) -->
  <g transform="translate(480 90)">
    <rect width="260" height="420" rx="34" fill="#0A0D14" stroke="#2A2F3D" stroke-width="2"/>
    <rect x="6" y="6" width="248" height="408" rx="28" fill="#0A0D14"/>
    <rect x="92" y="14" width="76" height="14" rx="7" fill="#11151F"/>
    <text x="20" y="58" font-family="Inter, system-ui, sans-serif"
          font-size="13" font-weight="600" fill="#FFFFFF">Top Charts</text>
    <text x="20" y="74" font-family="Inter, system-ui, sans-serif"
          font-size="9" fill="#FFFFFF" opacity="0.6">This week</text>

    <!-- Chart rows -->
    <g transform="translate(20 92)">
      <g>
        <rect width="220" height="48" rx="12" fill="#FFFFFF" opacity="0.06"/>
        <text x="14" y="32" font-family="Inter, system-ui, sans-serif"
              font-size="14" font-weight="700" fill="#FFD86B">1</text>
        <rect x="32" y="8" width="32" height="32" rx="8" fill="#2A52FF"/>
        <text x="48" y="30" text-anchor="middle" font-family="Inter, system-ui, sans-serif"
              font-size="14" font-weight="700" fill="#FFFFFF">P</text>
        <text x="74" y="22" font-family="Inter, system-ui, sans-serif"
              font-size="11" font-weight="600" fill="#FFFFFF">Puzzle Pop</text>
        <text x="74" y="36" font-family="Inter, system-ui, sans-serif"
              font-size="9" fill="#FFFFFF" opacity="0.6">Casual · 4.7★</text>
      </g>
      <g transform="translate(0 56)">
        <rect width="220" height="48" rx="12" fill="#FFFFFF" opacity="0.06"/>
        <text x="14" y="32" font-family="Inter, system-ui, sans-serif"
              font-size="14" font-weight="700" fill="#A6ADBE">2</text>
        <rect x="32" y="8" width="32" height="32" rx="8" fill="#7EC8FF"/>
        <text x="48" y="30" text-anchor="middle" font-family="Inter, system-ui, sans-serif"
              font-size="14" font-weight="700" fill="#FFFFFF">T</text>
        <text x="74" y="22" font-family="Inter, system-ui, sans-serif"
              font-size="11" font-weight="600" fill="#FFFFFF">ToolBox Pro</text>
        <text x="74" y="36" font-family="Inter, system-ui, sans-serif"
              font-size="9" fill="#FFFFFF" opacity="0.6">Utilities · 4.5★</text>
      </g>
      <g transform="translate(0 112)">
        <rect width="220" height="48" rx="12" fill="#FFFFFF" opacity="0.06"/>
        <text x="14" y="32" font-family="Inter, system-ui, sans-serif"
              font-size="14" font-weight="700" fill="#A6ADBE">3</text>
        <rect x="32" y="8" width="32" height="32" rx="8" fill="#FF8A6B"/>
        <text x="48" y="30" text-anchor="middle" font-family="Inter, system-ui, sans-serif"
              font-size="14" font-weight="700" fill="#FFFFFF">C</text>
        <text x="74" y="22" font-family="Inter, system-ui, sans-serif"
              font-size="11" font-weight="600" fill="#FFFFFF">CamCue</text>
        <text x="74" y="36" font-family="Inter, system-ui, sans-serif"
              font-size="9" fill="#FFFFFF" opacity="0.6">Photo · 4.7★</text>
      </g>
      <g transform="translate(0 168)">
        <rect width="220" height="48" rx="12" fill="#FFFFFF" opacity="0.06"/>
        <text x="14" y="32" font-family="Inter, system-ui, sans-serif"
              font-size="14" font-weight="700" fill="#A6ADBE">4</text>
        <rect x="32" y="8" width="32" height="32" rx="8" fill="#6BE3B7"/>
        <text x="48" y="30" text-anchor="middle" font-family="Inter, system-ui, sans-serif"
              font-size="14" font-weight="700" fill="#FFFFFF">F</text>
        <text x="74" y="22" font-family="Inter, system-ui, sans-serif"
              font-size="11" font-weight="600" fill="#FFFFFF">FitTrack</text>
        <text x="74" y="36" font-family="Inter, system-ui, sans-serif"
              font-size="9" fill="#FFFFFF" opacity="0.6">Health · 4.6★</text>
      </g>
      <g transform="translate(0 224)">
        <rect width="220" height="48" rx="12" fill="#FFFFFF" opacity="0.06"/>
        <text x="14" y="32" font-family="Inter, system-ui, sans-serif"
              font-size="14" font-weight="700" fill="#A6ADBE">5</text>
        <rect x="32" y="8" width="32" height="32" rx="8" fill="#C5A8FF"/>
        <text x="48" y="30" text-anchor="middle" font-family="Inter, system-ui, sans-serif"
              font-size="14" font-weight="700" fill="#FFFFFF">N</text>
        <text x="74" y="22" font-family="Inter, system-ui, sans-serif"
              font-size="11" font-weight="600" fill="#FFFFFF">NoteNimbus</text>
        <text x="74" y="36" font-family="Inter, system-ui, sans-serif"
              font-size="9" fill="#FFFFFF" opacity="0.6">Productivity · 4.8★</text>
      </g>
    </g>
  </g>

  <!-- Store badges (overlap) -->
  <g transform="translate(310 200)">
    <!-- Android-style badge -->
    <g>
      <rect width="180" height="54" rx="12" fill="#0A0D14"/>
      <g transform="translate(14 12)">
        <path d="M0 12 L12 0 L14 2 L2 14 Z" fill="#6BE3B7"/>
        <path d="M14 2 L26 14 L24 16 L12 4 Z" fill="#7EC8FF"/>
        <path d="M0 12 L2 14 L14 26 L12 28 L0 16 Z" fill="#FFD86B"/>
        <path d="M14 2 L26 14 L28 12 L16 0 Z" fill="#FF8A6B"/>
      </g>
      <text x="60" y="22" font-family="Inter, system-ui, sans-serif"
            font-size="9" font-weight="500" fill="#A6ADBE" letter-spacing="0.5">GET IT ON</text>
      <text x="60" y="42" font-family="Inter, system-ui, sans-serif"
            font-size="16" font-weight="700" fill="#FFFFFF">Android Store</text>
    </g>
    <!-- iOS-style badge -->
    <g transform="translate(0 70)">
      <rect width="180" height="54" rx="12" fill="#0A0D14"/>
      <g transform="translate(14 14)">
        <path d="M14 2 C12 4 8 4 6 2 C4 4 4 8 6 10 C8 12 12 12 14 10 C16 12 20 12 22 10 C24 8 24 4 22 2 C20 4 16 4 14 2 Z"
              fill="#FFFFFF"/>
        <path d="M14 14 C12 14 8 18 8 24 C8 30 12 34 14 34 C16 34 18 32 20 32 C22 32 24 34 26 34 C28 34 32 30 32 24 C32 18 28 14 26 14 C24 14 22 16 20 16 C18 16 16 14 14 14 Z"
              fill="#FFFFFF"/>
      </g>
      <text x="60" y="22" font-family="Inter, system-ui, sans-serif"
            font-size="9" font-weight="500" fill="#A6ADBE" letter-spacing="0.5">DOWNLOAD ON</text>
      <text x="60" y="42" font-family="Inter, system-ui, sans-serif"
            font-size="16" font-weight="700" fill="#FFFFFF">iOS Store</text>
    </g>
  </g>

  <!-- Bear mascot (top-right) -->
  <g transform="translate(560 30)">
    <use href="#st-bear" x="0" y="0" width="180" height="180"/>
  </g>

  <!-- Sparkles -->
  <g fill="#FFD86B">
    <path d="M420 80 L423 86 L429 89 L423 92 L420 98 L417 92 L411 89 L417 86 Z" opacity="0.9"/>
    <path d="M60 530 L63 536 L69 539 L63 542 L60 548 L57 542 L51 539 L57 536 Z" opacity="0.7"/>
  </g>
</svg>
